Coordinates
version=1
nRows=17
nColumns=36
inDegrees=yes

Units are S.I. units (second, meters, Newtons, ...)
If the header above contains a line with 'inDegrees', this indicates whether rotational values are in degrees (yes) or radians (no).

endheader
time	pelvis_tilt	pelvis_list	pelvis_rotation	pelvis_tx	pelvis_ty	pelvis_tz	hip_flexion_r	hip_adduction_r	hip_rotation_r	knee_angle_r	knee_angle_r_beta	ankle_angle_r	subtalar_angle_r	mtp_angle_r	hip_flexion_l	hip_adduction_l	hip_rotation_l	knee_angle_l	knee_angle_l_beta	ankle_angle_l	subtalar_angle_l	mtp_angle_l	lumbar_extension	lumbar_bending	lumbar_rotation	arm_flex_r	arm_add_r	arm_rot_r	elbow_flex_r	pro_sup_r	arm_flex_l	arm_add_l	arm_rot_l	elbow_flex_l	pro_sup_l
      2.38333330	    -14.03403448	     -1.08244628	     -1.17303109	      1.15781315	      1.06506983	     -0.58123358	     27.97621103	     -6.76063268	     -9.22671193	     23.92269537	      0.41752980	    -21.40803462	      0.88072700	     -7.49999987	     27.10678336	    -12.16944829	     -4.04724639	     21.11577205	      0.36853975	    -19.07101069	     -1.31841398	     -7.49999987	     -9.49720757	      0.66930124	      1.29859867	     54.46396445	    -43.48014473	     35.61369369	    143.99174989	     65.48528172	     57.65662540	    -37.13189065	     39.69924466	    144.95706665	     72.94415479
      2.40000000	    -14.02619655	     -1.09727368	     -1.14630935	      1.15857206	      1.02735539	     -0.58195271	     30.69491278	     -7.26025264	     -9.33261532	     29.51120146	      0.51506763	    -17.86049029	     -1.59671450	     -7.49999987	     29.72515052	    -12.55425802	     -3.23993342	     25.96447077	      0.45316550	    -15.49026515	     -2.93125340	     -7.49999987	    -11.08664172	      0.76953371	      1.33848758	     57.29664069	    -43.91153713	     35.59863417	    144.90427684	     65.42565438	     58.31639670	    -38.07535289	     38.09850831	    144.39824204	     72.42500670
      2.41666670	    -14.23589712	     -0.83943466	     -0.99296765	      1.15691193	      0.98762775	     -0.58482627	     33.94011709	     -7.97018904	     -8.88328476	     37.09204174	      0.64737825	    -10.46615959	     -5.19460726	     -7.49999987	     32.74029873	    -12.46577524	     -1.71071033	     32.33150262	      0.56429117	     -9.12284016	     -5.74410628	     -7.49999987	    -12.43459017	      1.36515802	     -0.56930982	     62.34908664	    -41.56291809	     39.72655908	    144.74136572	     66.48248482	     55.48608129	    -40.41362255	     32.86971439	    145.59448718	     73.00488993
      2.43333330	    -14.73782283	     -0.81807801	     -0.55351375	      1.14595344	      0.95192135	     -0.58673896	     37.92345061	     -8.51059146	     -8.34771981	     45.31214318	      0.79084609	     -1.35970793	     -8.14003957	     -7.49999987	     36.49198233	    -12.12953889	      0.01638492	     39.26225284	      0.68525558	     -0.55783403	     -7.93254862	     -7.49999987	    -14.08945906	      1.77954282	     -1.42017035	     65.47956169	    -40.57872601	     40.29366877	    145.25658580	     67.84340210	     55.43412976	    -41.11612080	     30.48465939	    146.52821347	     73.85535557
      2.45000000	    -15.50114866	     -0.59316239	     -0.34633342	      1.13922806	      0.90778246	     -0.59187619	     42.26121286	     -9.48996662	     -7.93053434	     53.17034156	      0.92799752	      7.72697773	    -10.09653846	     -7.49999987	     40.72609384	    -11.69537802	      1.09151186	     46.42019085	      0.81018517	      7.11663623	     -9.47905973	     -7.49999987	    -15.27710527	      1.87688801	     -1.81127096	     67.76888563	    -40.29810310	     39.89482632	    146.35793876	     67.51807041	     56.38265433	    -41.20182070	     29.39448865	    147.12109135	     72.81571841
      2.46666670	    -16.43125489	     -0.25627337	     -0.25621812	      1.12717789	      0.86746154	     -0.59383169	     47.07363818	    -10.29035232	     -7.08470495	     60.44854080	      1.05502607	     15.66332286	    -11.50434025	     -7.49999987	     46.11552127	    -11.23833160	      2.05584252	     54.52796017	      0.95169244	     13.66531752	    -10.86471031	     -7.49999987	    -16.57780364	      1.72763281	     -2.08993112	     71.03208012	    -40.08282711	     39.29219659	    146.70732690	     67.06503059	     59.68955381	    -41.19146634	     28.00022546	    147.36864526	     71.61467696
      2.48333330	    -18.02441202	      0.00870580	     -0.29210379	      1.11453747	      0.82793627	     -0.59643677	     52.84037056	    -10.86793465	     -6.10957514	     67.21348695	      1.17309665	     22.39450465	    -11.54148316	     -7.49999987	     52.53104592	    -11.09380046	      2.77890256	     62.65323934	      1.09350531	     19.71537001	    -11.16375593	     -7.49999987	    -18.02806980	      1.73352837	     -2.38398731	     74.67538474	    -40.53071509	     38.71573142	    147.22843867	     66.49985693	     63.16472924	    -42.00059360	     27.19112996	    147.87504807	     70.35626430
      2.50000000	    -20.54988008	     -0.14577205	     -0.23805954	      1.09379065	      0.78799729	     -0.59897805	     60.59482310	    -11.55016077	     -5.51491291	     74.46854598	      1.29972132	     28.00725612	     -9.97135868	     -7.49999987	     61.25623047	    -11.52286705	      3.56047315	     71.30726050	      1.24454648	     24.49470561	    -10.56658869	     -7.49999987	    -19.21754440	      1.98702287	     -2.29530396	     79.22353704	    -40.86275446	     39.18936430	    146.64853834	     66.11769808	     68.10529930	    -42.54314349	     28.73601862	    147.81039870	     69.44630024
      2.51666670	    -22.38401483	     -0.36401646	     -0.58223266	      1.09297681	      0.76308607	     -0.60031424	     66.64782467	    -11.84296836	     -4.95092217	     80.26117405	      1.40082175	     31.36095393	     -9.13420945	     -7.49999987	     67.54506612	    -12.18404998	      4.33563536	     77.46323634	      1.35198852	     27.77727265	    -10.35801785	     -7.49999987	    -20.89375078	      2.09919400	     -1.72198315	     82.27540994	    -40.26099470	     39.01509072	    145.37956962	     65.75957404	     70.45559442	    -42.64988763	     29.13227844	    146.79238411	     68.68090471
      2.53333330	    -24.37491991	     -0.40812065	     -1.11302850	      1.08181177	      0.72541348	     -0.60062613	     73.25099247	    -12.06501299	     -4.10205035	     86.16805778	      1.50391632	     33.56718272	     -8.86702223	     -7.49999987	     74.03722872	    -12.93684843	      5.13309886	     83.37851866	      1.45522968	     30.38750139	     -9.87416980	     -7.49999987	    -22.07148431	      2.11064150	     -0.75133029	     86.36553856	    -40.31372481	     39.51294341	    144.54476950	     65.45117547	     73.53237163	    -42.53101465	     29.18179638	    145.35550430	     67.69501769
      2.55000000	    -26.21115515	     -0.48935098	     -1.51117205	      1.06931754	      0.71170907	     -0.60166801	     78.39530495	    -12.32680628	     -3.78186233	     89.91059878	      1.56923598	     34.68491131	     -8.87551915	     -7.49999987	     79.15385492	    -13.42994174	      5.78899803	     87.16156676	      1.52125632	     32.09699811	     -9.34330184	     -7.49999987	    -23.55554855	      2.13989314	      0.36244100	     88.93529757	    -40.57667259	     41.16817575	    143.51503826	     65.68111808	     75.31639959	    -41.74247864	     30.91650519	    143.69206785	     67.37629118
      2.56666670	    -28.09926512	     -0.27408960	     -1.87230183	      1.05837703	      0.68582193	     -0.60030904	     83.46684600	    -12.58403507	     -3.21586356	     93.19209319	      1.62650886	     35.59033854	     -8.55094214	     -7.49999987	     83.95279270	    -13.93777356	      6.04862028	     90.24087588	      1.57500040	     33.00416374	     -8.84694361	     -7.49999987	    -24.61682818	      1.98286542	      0.90164518	     90.29806837	    -40.03854284	     41.48542961	    143.25766926	     65.62820058	     76.45441238	    -40.74175129	     30.91249634	    142.99481965	     67.03465298
      2.58333330	    -30.22563932	     -0.01568118	     -2.16096348	      1.05432429	      0.65999521	     -0.59465931	     88.63932881	    -12.62906864	     -2.59517279	     96.41918199	      1.68283219	     36.50743344	     -8.43486315	     -7.49999987	     88.86613879	    -14.44451189	      6.40122493	     93.22552468	      1.62709235	     33.90407393	     -8.42979903	     -7.49999987	    -24.67323619	      1.47697134	      1.44660143	     89.94461688	    -39.67461271	     42.71465650	    142.77122886	     65.48851926	     76.63311331	    -40.09872769	     31.07705256	    142.11483172	     66.52715279
      2.60000000	    -31.72968354	      0.23539135	     -2.34763690	      1.05021647	      0.64655162	     -0.59738234	     92.62158270	    -12.73368212	     -2.08480954	     98.90355862	      1.72619274	     37.16042364	     -8.35781962	     -7.49999987	     92.64045398	    -14.72435932	      6.71704431	     95.53620987	      1.66742142	     34.44003348	     -8.25041923	     -7.49999987	    -25.50164456	      1.18815602	      1.76872692	     90.25753754	    -38.46160062	     42.46816392	    142.80687578	     65.65207866	     76.61045114	    -39.02947272	     31.13361294	    142.13437574	     66.72446738
      2.61666670	    -34.06811977	      0.61456197	     -2.49591555	      1.04902253	      0.63528147	     -0.59935005	     96.88336453	    -12.88570601	     -1.56496008	    100.72691709	      1.75801635	     37.55341223	     -8.06948315	     -7.49999987	     96.59588846	    -14.92223224	      6.76153225	     97.20860296	      1.69661018	     34.80166092	     -7.72354794	     -7.49999987	    -24.84809469	      0.77402045	      2.22222685	     87.27745019	    -38.32626204	     41.28450421	    143.51609228	     71.28377414	     74.09375982	    -37.21822027	     30.63763795	    142.05011073	     75.56100707
      2.63333330	    -35.28268891	      0.88504054	     -2.61437615	      1.05267350	      0.62136989	     -0.59517597	     99.63066353	    -12.92491235	     -1.05407458	    102.45290451	      1.78814051	     37.97393686	     -7.81994616	     -7.49999987	     99.04355227	    -15.23635017	      6.83312869	     98.72700513	      1.72311130	     35.11148655	     -7.30518818	     -7.49999987	    -25.11655474	      0.40867284	      2.63023243	     86.33974951	    -37.25106708	     41.43835885	    144.44145740	     71.52551858	     73.18005909	    -36.66714059	     30.22357908	    142.33792765	     75.98190454
      2.65000000	    -36.60727437	      1.08258855	     -2.42537305	      1.03222948	      0.61232799	     -0.60619769	    102.44502318	    -13.37615641	     -0.62296104	    103.69811928	      1.80987361	     37.98269241	     -7.86621104	     -7.49999987	    101.71616344	    -15.24067132	      6.69749626	     99.94706427	      1.74440535	     34.98499860	     -7.14471451	     -7.49999987	    -25.64805336	      0.87452396	      2.45792404	     88.00077968	    -36.61676949	     40.71885324	    143.90352185	     71.49162877	     74.74798331	    -35.32380805	     29.73227544	    141.87721110	     76.08492976
